<?xml version="1.0" encoding="UTF-8" standalone="no"?>
<!DOCTYPE svg PUBLIC "-//W3C//DTD SVG 1.1//EN"
 "http://www.w3.org/Graphics/SVG/1.1/DTD/svg11.dtd">
<!-- Generated by graphviz version 2.40.1 (20161225.0304)
 -->
<!-- Title: %3 Pages: 1 -->
<svg width="504pt" height="386pt"
 viewBox="0.00 0.00 504.18 386.00" xmlns="http://www.w3.org/2000/svg" xmlns:xlink="http://www.w3.org/1999/xlink">
<g id="graph0" class="graph" transform="scale(1 1) rotate(0) translate(4 382)">
<title>%3</title>
<polygon fill="#ffffff" stroke="transparent" points="-4,4 -4,-382 500.1789,-382 500.1789,4 -4,4"/>
<!-- fake -->
<g id="node1" class="node">
<title>fake</title>
</g>
<!-- 0 -->
<g id="node2" class="node">
<title>0</title>
<ellipse fill="none" stroke="#000000" cx="247.1789" cy="-287" rx="27" ry="18"/>
<text text-anchor="middle" x="247.1789" y="-283.3" font-family="Times,serif" font-size="14.00" fill="#000000">0</text>
</g>
<!-- fake&#45;&gt;0 -->
<g id="edge1" class="edge">
<title>fake&#45;&gt;0</title>
<path fill="none" stroke="#000000" stroke-width="2" d="M247.1789,-341.9551C247.1789,-333.8828 247.1789,-324.1764 247.1789,-315.1817"/>
<polygon fill="#000000" stroke="#000000" stroke-width="2" points="250.679,-315.0903 247.1789,-305.0904 243.679,-315.0904 250.679,-315.0903"/>
</g>
<!-- 0&#45;&gt;0 -->
<g id="edge7" class="edge">
<title>0&#45;&gt;0</title>
<path fill="none" stroke="#000000" d="M272.6223,-293.6907C283.2067,-294.1521 292.1789,-291.9219 292.1789,-287 292.1789,-283.77 288.3149,-281.6992 282.667,-280.7876"/>
<polygon fill="#000000" stroke="#000000" points="282.7775,-277.289 272.6223,-280.3093 282.4445,-284.2811 282.7775,-277.289"/>
<text text-anchor="middle" x="321.6789" y="-283.3" font-family="Times,serif" font-size="14.00" fill="#000000">frozenset()</text>
</g>
<!-- 1 -->
<g id="node3" class="node">
<title>1</title>
<ellipse fill="none" stroke="#000000" cx="149.1789" cy="-200" rx="27" ry="18"/>
<text text-anchor="middle" x="149.1789" y="-196.3" font-family="Times,serif" font-size="14.00" fill="#000000">1</text>
</g>
<!-- 0&#45;&gt;1 -->
<g id="edge11" class="edge">
<title>0&#45;&gt;1</title>
<path fill="none" stroke="#000000" d="M230.5545,-272.2416C214.8322,-258.2841 191.0607,-237.1809 173.2639,-221.3816"/>
<polygon fill="#000000" stroke="#000000" points="175.3597,-218.5619 165.5577,-214.5404 170.7124,-223.7968 175.3597,-218.5619"/>
<text text-anchor="middle" x="253.1789" y="-239.8" font-family="Times,serif" font-size="14.00" fill="#000000">frozenset({&#39;blue&#39;})</text>
</g>
<!-- 2 -->
<g id="node4" class="node">
<title>2</title>
<ellipse fill="none" stroke="#000000" cx="149.1789" cy="-18" rx="27" ry="18"/>
<text text-anchor="middle" x="149.1789" y="-14.3" font-family="Times,serif" font-size="14.00" fill="#000000">2</text>
</g>
<!-- 0&#45;&gt;2 -->
<g id="edge5" class="edge">
<title>0&#45;&gt;2</title>
<path fill="none" stroke="#000000" d="M271.4616,-278.8532C284.3833,-273.1747 299.2121,-264.2116 307.1789,-251 352.4501,-175.9251 372.2939,-122.1767 317.1789,-54 301.0332,-34.0281 230.5977,-24.636 186.2121,-20.6271"/>
<polygon fill="#000000" stroke="#000000" points="186.3418,-17.1255 176.0808,-19.764 185.7476,-24.1003 186.3418,-17.1255"/>
<text text-anchor="middle" x="402.6789" y="-152.8" font-family="Times,serif" font-size="14.00" fill="#000000">frozenset({&#39;green&#39;})</text>
</g>
<!-- 1&#45;&gt;1 -->
<g id="edge6" class="edge">
<title>1&#45;&gt;1</title>
<path fill="none" stroke="#000000" d="M173.7113,-207.752C184.6867,-208.4902 194.1789,-205.9063 194.1789,-200 194.1789,-196.0317 189.8939,-193.5632 183.7532,-192.5944"/>
<polygon fill="#000000" stroke="#000000" points="183.8261,-189.0949 173.7113,-192.248 183.5847,-196.0908 183.8261,-189.0949"/>
<text text-anchor="middle" x="223.6789" y="-196.3" font-family="Times,serif" font-size="14.00" fill="#000000">frozenset()</text>
</g>
<!-- 1&#45;&gt;2 -->
<g id="edge13" class="edge">
<title>1&#45;&gt;2</title>
<path fill="none" stroke="#000000" d="M123.4494,-194.3651C92.7041,-186.1504 42.3865,-167.689 18.1789,-131 -.708,-102.3751 -7.7394,-81.1759 13.1789,-54 25.2129,-38.3661 76.2195,-28.1274 112.2177,-22.7006"/>
<polygon fill="#000000" stroke="#000000" points="112.9897,-26.1256 122.3875,-21.2337 111.9902,-19.1973 112.9897,-26.1256"/>
<text text-anchor="middle" x="68.1789" y="-105.3" font-family="Times,serif" font-size="14.00" fill="#000000">frozenset({&#39;blue&#39;})</text>
</g>
<!-- 3 -->
<g id="node5" class="node">
<title>3</title>
<ellipse fill="none" stroke="#000000" cx="149.1789" cy="-109" rx="18" ry="18"/>
<ellipse fill="none" stroke="#000000" cx="149.1789" cy="-109" rx="22" ry="22"/>
<text text-anchor="middle" x="149.1789" y="-105.3" font-family="Times,serif" font-size="14.00" fill="#000000">3</text>
</g>
<!-- 1&#45;&gt;3 -->
<g id="edge12" class="edge">
<title>1&#45;&gt;3</title>
<path fill="none" stroke="#000000" d="M149.1789,-181.5848C149.1789,-170.1105 149.1789,-155.0231 149.1789,-141.5774"/>
<polygon fill="#000000" stroke="#000000" points="152.679,-141.2465 149.1789,-131.2465 145.679,-141.2466 152.679,-141.2465"/>
<text text-anchor="middle" x="202.6789" y="-152.8" font-family="Times,serif" font-size="14.00" fill="#000000">frozenset({&#39;green&#39;})</text>
</g>
<!-- 2&#45;&gt;2 -->
<g id="edge2" class="edge">
<title>2&#45;&gt;2</title>
<path fill="none" stroke="#000000" d="M175.9737,-20.6192C185.9593,-20.7051 194.1789,-19.832 194.1789,-18 194.1789,-16.855 190.9681,-16.0846 186.1221,-15.6887"/>
<polygon fill="#000000" stroke="#000000" points="186.0753,-12.1858 175.9737,-15.3808 185.8629,-19.1826 186.0753,-12.1858"/>
<text text-anchor="middle" x="244.1789" y="-14.3" font-family="Times,serif" font-size="14.00" fill="#000000">frozenset({&#39;blue&#39;})</text>
</g>
<!-- 2&#45;&gt;2 -->
<g id="edge8" class="edge">
<title>2&#45;&gt;2</title>
<path fill="none" stroke="#000000" d="M175.6942,-21.6119C218.8732,-24.659 294.1789,-23.4551 294.1789,-18 294.1789,-12.9498 229.6366,-11.5431 185.7952,-13.7799"/>
<polygon fill="#000000" stroke="#000000" points="185.4657,-10.2933 175.6942,-14.3881 185.8865,-17.2807 185.4657,-10.2933"/>
<text text-anchor="middle" x="323.6789" y="-14.3" font-family="Times,serif" font-size="14.00" fill="#000000">frozenset()</text>
</g>
<!-- 2&#45;&gt;2 -->
<g id="edge10" class="edge">
<title>2&#45;&gt;2</title>
<path fill="none" stroke="#000000" d="M175.5456,-22.5638C232.9363,-28.1756 353.1789,-26.6543 353.1789,-18 353.1789,-9.8359 246.1718,-8.0197 185.8692,-12.5513"/>
<polygon fill="#000000" stroke="#000000" points="185.2101,-9.0949 175.5456,-13.4362 185.808,-16.0693 185.2101,-9.0949"/>
<text text-anchor="middle" x="406.6789" y="-14.3" font-family="Times,serif" font-size="14.00" fill="#000000">frozenset({&#39;green&#39;})</text>
</g>
<!-- 3&#45;&gt;2 -->
<g id="edge3" class="edge">
<title>3&#45;&gt;2</title>
<path fill="none" stroke="#000000" d="M128.6119,-100.7241C117.3584,-96.3502 103.1117,-91.0616 90.1789,-87 59.5315,-77.375 39.8628,-94.3859 20.1789,-69 16.0938,-63.7316 16.1479,-59.3099 20.1789,-54 31.3591,-39.2725 78.4394,-28.9493 112.4965,-23.2423"/>
<polygon fill="#000000" stroke="#000000" points="113.2758,-26.6621 122.5937,-21.6197 112.165,-19.7508 113.2758,-26.6621"/>
<text text-anchor="middle" x="73.6789" y="-57.8" font-family="Times,serif" font-size="14.00" fill="#000000">frozenset({&#39;green&#39;})</text>
</g>
<!-- 3&#45;&gt;2 -->
<g id="edge4" class="edge">
<title>3&#45;&gt;2</title>
<path fill="none" stroke="#000000" d="M149.1789,-86.9714C149.1789,-74.8075 149.1789,-59.5615 149.1789,-46.499"/>
<polygon fill="#000000" stroke="#000000" points="152.679,-46.1556 149.1789,-36.1556 145.679,-46.1556 152.679,-46.1556"/>
<text text-anchor="middle" x="199.1789" y="-57.8" font-family="Times,serif" font-size="14.00" fill="#000000">frozenset({&#39;blue&#39;})</text>
</g>
<!-- 3&#45;&gt;2 -->
<g id="edge9" class="edge">
<title>3&#45;&gt;2</title>
<path fill="none" stroke="#000000" d="M171.0652,-105.9602C206.8568,-100.0396 271.8687,-84.7574 250.1789,-54 242.3654,-42.92 210.7438,-32.7937 184.9374,-26.123"/>
<polygon fill="#000000" stroke="#000000" points="185.5869,-22.6778 175.0372,-23.655 183.8936,-29.47 185.5869,-22.6778"/>
<text text-anchor="middle" x="283.6789" y="-57.8" font-family="Times,serif" font-size="14.00" fill="#000000">frozenset()</text>
</g>
</g>
</svg>
