<?xml version="1.0" encoding="UTF-8" standalone="no"?>
<!DOCTYPE svg PUBLIC "-//W3C//DTD SVG 1.1//EN"
 "http://www.w3.org/Graphics/SVG/1.1/DTD/svg11.dtd">
<!-- Generated by graphviz version 2.40.1 (20161225.0304)
 -->
<!-- Title: %3 Pages: 1 -->
<svg width="1755pt" height="560pt"
 viewBox="0.00 0.00 1755.00 560.00" xmlns="http://www.w3.org/2000/svg" xmlns:xlink="http://www.w3.org/1999/xlink">
<g id="graph0" class="graph" transform="scale(1 1) rotate(0) translate(4 556)">
<title>%3</title>
<polygon fill="#ffffff" stroke="transparent" points="-4,4 -4,-556 1751,-556 1751,4 -4,4"/>
<!-- fake -->
<g id="node1" class="node">
<title>fake</title>
</g>
<!-- 0 -->
<g id="node2" class="node">
<title>0</title>
<ellipse fill="none" stroke="#000000" cx="1454" cy="-461" rx="27" ry="18"/>
<text text-anchor="middle" x="1454" y="-457.3" font-family="Times,serif" font-size="14.00" fill="#000000">0</text>
</g>
<!-- fake&#45;&gt;0 -->
<g id="edge1" class="edge">
<title>fake&#45;&gt;0</title>
<path fill="none" stroke="#000000" stroke-width="2" d="M1454,-515.9551C1454,-507.8828 1454,-498.1764 1454,-489.1817"/>
<polygon fill="#000000" stroke="#000000" stroke-width="2" points="1457.5001,-489.0903 1454,-479.0904 1450.5001,-489.0904 1457.5001,-489.0903"/>
</g>
<!-- 0&#45;&gt;0 -->
<g id="edge7" class="edge">
<title>0&#45;&gt;0</title>
<path fill="none" stroke="#000000" d="M1479.4435,-467.6907C1490.0278,-468.1521 1499,-465.9219 1499,-461 1499,-457.77 1495.136,-455.6992 1489.4881,-454.7876"/>
<polygon fill="#000000" stroke="#000000" points="1489.5987,-451.289 1479.4435,-454.3093 1489.2656,-458.2811 1489.5987,-451.289"/>
<text text-anchor="middle" x="1528.5" y="-457.3" font-family="Times,serif" font-size="14.00" fill="#000000">frozenset()</text>
</g>
<!-- 1 -->
<g id="node3" class="node">
<title>1</title>
<ellipse fill="none" stroke="#000000" cx="286" cy="-374" rx="27" ry="18"/>
<text text-anchor="middle" x="286" y="-370.3" font-family="Times,serif" font-size="14.00" fill="#000000">1</text>
</g>
<!-- 0&#45;&gt;1 -->
<g id="edge24" class="edge">
<title>0&#45;&gt;1</title>
<path fill="none" stroke="#000000" d="M1427.1297,-458.9985C1273.0559,-447.5221 502.4333,-390.1213 323.2613,-376.7755"/>
<polygon fill="#000000" stroke="#000000" points="323.2639,-373.266 313.0315,-376.0135 322.7438,-380.2467 323.2639,-373.266"/>
<text text-anchor="middle" x="989" y="-413.8" font-family="Times,serif" font-size="14.00" fill="#000000">frozenset({&#39;blue&#39;})</text>
</g>
<!-- 2 -->
<g id="node4" class="node">
<title>2</title>
<ellipse fill="none" stroke="#000000" cx="772" cy="-18" rx="27" ry="18"/>
<text text-anchor="middle" x="772" y="-14.3" font-family="Times,serif" font-size="14.00" fill="#000000">2</text>
</g>
<!-- 0&#45;&gt;2 -->
<g id="edge13" class="edge">
<title>0&#45;&gt;2</title>
<path fill="none" stroke="#000000" d="M1434.6958,-448.1016C1414.592,-432.9565 1386,-405.823 1386,-374 1386,-374 1386,-374 1386,-109 1386,-77.133 1368.4291,-68.3976 1340,-54 1292.8848,-30.1391 928.3035,-21.024 809.3785,-18.6671"/>
<polygon fill="#000000" stroke="#000000" points="809.3633,-15.1663 799.2974,-18.472 809.2278,-22.165 809.3633,-15.1663"/>
<text text-anchor="middle" x="1443" y="-239.8" font-family="Times,serif" font-size="14.00" fill="#000000">frozenset({&#39;yellow&#39;})</text>
</g>
<!-- 0&#45;&gt;2 -->
<g id="edge21" class="edge">
<title>0&#45;&gt;2</title>
<path fill="none" stroke="#000000" d="M1473.5881,-448.1677C1493.9875,-433.0819 1523,-406.0013 1523,-374 1523,-374 1523,-374 1523,-109 1523,-36.2941 961.1056,-21.2811 809.3746,-18.5525"/>
<polygon fill="#000000" stroke="#000000" points="809.231,-15.0496 799.1722,-18.3767 809.1103,-22.0486 809.231,-15.0496"/>
<text text-anchor="middle" x="1576.5" y="-239.8" font-family="Times,serif" font-size="14.00" fill="#000000">frozenset({&#39;green&#39;})</text>
</g>
<!-- 0&#45;&gt;2 -->
<g id="edge30" class="edge">
<title>0&#45;&gt;2</title>
<path fill="none" stroke="#000000" d="M1480.0158,-455.3746C1533.9571,-442.9586 1653,-411.3289 1653,-374 1653,-374 1653,-374 1653,-109 1653,-5.192 1528.6983,-69.1381 1426,-54 1305.6047,-36.2532 929.3523,-23.0165 809.2466,-19.1541"/>
<polygon fill="#000000" stroke="#000000" points="809.1924,-15.6507 799.0859,-18.8301 808.9692,-22.6471 809.1924,-15.6507"/>
<text text-anchor="middle" x="1700" y="-239.8" font-family="Times,serif" font-size="14.00" fill="#000000">frozenset({&#39;red&#39;})</text>
</g>
<!-- 1&#45;&gt;1 -->
<g id="edge2" class="edge">
<title>1&#45;&gt;1</title>
<path fill="none" stroke="#000000" d="M310.5325,-381.752C321.5078,-382.4902 331,-379.9063 331,-374 331,-370.0317 326.7151,-367.5632 320.5743,-366.5944"/>
<polygon fill="#000000" stroke="#000000" points="320.6472,-363.0949 310.5325,-366.248 320.4059,-370.0908 320.6472,-363.0949"/>
<text text-anchor="middle" x="360.5" y="-370.3" font-family="Times,serif" font-size="14.00" fill="#000000">frozenset()</text>
</g>
<!-- 1&#45;&gt;2 -->
<g id="edge10" class="edge">
<title>1&#45;&gt;2</title>
<path fill="none" stroke="#000000" d="M259.0938,-371.6132C187.8981,-364.5602 0,-340.8455 0,-287 0,-287 0,-287 0,-109 0,-49.5224 64.2192,-68.1051 122,-54 239.5037,-25.3156 614.9036,-19.431 734.8075,-18.2726"/>
<polygon fill="#000000" stroke="#000000" points="734.984,-21.7712 744.9517,-18.1801 734.9202,-14.7715 734.984,-21.7712"/>
<text text-anchor="middle" x="50" y="-196.3" font-family="Times,serif" font-size="14.00" fill="#000000">frozenset({&#39;blue&#39;})</text>
</g>
<!-- 1&#45;&gt;2 -->
<g id="edge23" class="edge">
<title>1&#45;&gt;2</title>
<path fill="none" stroke="#000000" d="M259.183,-370.7154C216.0377,-363.769 136,-343.2961 136,-287 136,-287 136,-287 136,-109 136,-43.7998 208.4885,-68.7429 272,-54 360.0327,-33.565 634.3021,-22.5931 734.6973,-19.1793"/>
<polygon fill="#000000" stroke="#000000" points="735.0842,-22.6684 744.9617,-18.8362 734.8503,-15.6723 735.0842,-22.6684"/>
<text text-anchor="middle" x="193" y="-196.3" font-family="Times,serif" font-size="14.00" fill="#000000">frozenset({&#39;yellow&#39;})</text>
</g>
<!-- 1&#45;&gt;2 -->
<g id="edge28" class="edge">
<title>1&#45;&gt;2</title>
<path fill="none" stroke="#000000" d="M286,-355.6694C286,-338.0629 286,-310.7135 286,-287 286,-287 286,-287 286,-109 286,-49.5224 350.5377,-69.3513 408,-54 468.9901,-37.7062 654.8052,-25.0068 734.7651,-20.1469"/>
<polygon fill="#000000" stroke="#000000" points="735.1019,-23.6331 744.8742,-19.5401 734.6824,-16.6456 735.1019,-23.6331"/>
<text text-anchor="middle" x="339.5" y="-196.3" font-family="Times,serif" font-size="14.00" fill="#000000">frozenset({&#39;green&#39;})</text>
</g>
<!-- 3 -->
<g id="node5" class="node">
<title>3</title>
<ellipse fill="none" stroke="#000000" cx="459" cy="-287" rx="27" ry="18"/>
<text text-anchor="middle" x="459" y="-283.3" font-family="Times,serif" font-size="14.00" fill="#000000">3</text>
</g>
<!-- 1&#45;&gt;3 -->
<g id="edge19" class="edge">
<title>1&#45;&gt;3</title>
<path fill="none" stroke="#000000" d="M307.5608,-363.1573C337.946,-347.8769 393.5249,-319.9268 428.24,-302.4689"/>
<polygon fill="#000000" stroke="#000000" points="430.0785,-305.4621 437.4399,-297.8424 426.9335,-299.2083 430.0785,-305.4621"/>
<text text-anchor="middle" x="429" y="-326.8" font-family="Times,serif" font-size="14.00" fill="#000000">frozenset({&#39;red&#39;})</text>
</g>
<!-- 2&#45;&gt;2 -->
<g id="edge9" class="edge">
<title>2&#45;&gt;2</title>
<path fill="none" stroke="#000000" d="M799.2408,-19.5735C809.0239,-19.6073 817,-19.0828 817,-18 817,-17.3402 814.0382,-16.8876 809.5105,-16.6425"/>
<polygon fill="#000000" stroke="#000000" points="809.3122,-13.1376 799.2408,-16.4265 809.165,-20.1361 809.3122,-13.1376"/>
<text text-anchor="middle" x="867" y="-14.3" font-family="Times,serif" font-size="14.00" fill="#000000">frozenset({&#39;blue&#39;})</text>
</g>
<!-- 2&#45;&gt;2 -->
<g id="edge20" class="edge">
<title>2&#45;&gt;2</title>
<path fill="none" stroke="#000000" d="M798.8406,-20.1808C842.0714,-21.9918 917,-21.2648 917,-18 917,-14.9775 852.7808,-14.1301 808.9464,-15.4579"/>
<polygon fill="#000000" stroke="#000000" points="808.7091,-11.9641 798.8406,-15.8192 808.9593,-18.9596 808.7091,-11.9641"/>
<text text-anchor="middle" x="974" y="-14.3" font-family="Times,serif" font-size="14.00" fill="#000000">frozenset({&#39;yellow&#39;})</text>
</g>
<!-- 2&#45;&gt;2 -->
<g id="edge26" class="edge">
<title>2&#45;&gt;2</title>
<path fill="none" stroke="#000000" d="M798.9522,-20.5422C867.3617,-24.1384 1031,-23.291 1031,-18 1031,-12.957 882.3432,-11.9508 809.1734,-14.9814"/>
<polygon fill="#000000" stroke="#000000" points="808.7784,-11.4959 798.9522,-15.4578 809.1044,-18.4883 808.7784,-11.4959"/>
<text text-anchor="middle" x="1060.5" y="-14.3" font-family="Times,serif" font-size="14.00" fill="#000000">frozenset()</text>
</g>
<!-- 2&#45;&gt;2 -->
<g id="edge27" class="edge">
<title>2&#45;&gt;2</title>
<path fill="none" stroke="#000000" d="M798.8343,-21.0099C878.5625,-26.2385 1090,-25.2352 1090,-18 1090,-11.0545 895.155,-9.8519 809.0225,-14.392"/>
<polygon fill="#000000" stroke="#000000" points="808.612,-10.91 798.8343,-14.9901 809.0223,-17.8979 808.612,-10.91"/>
<text text-anchor="middle" x="1137" y="-14.3" font-family="Times,serif" font-size="14.00" fill="#000000">frozenset({&#39;red&#39;})</text>
</g>
<!-- 2&#45;&gt;2 -->
<g id="edge31" class="edge">
<title>2&#45;&gt;2</title>
<path fill="none" stroke="#000000" d="M798.6494,-21.2823C893.9423,-28.3534 1184,-27.2593 1184,-18 1184,-9.0482 912.8842,-7.7283 808.7679,-14.0403"/>
<polygon fill="#000000" stroke="#000000" points="808.3933,-10.5575 798.6494,-14.7177 808.8609,-17.5418 808.3933,-10.5575"/>
<text text-anchor="middle" x="1237.5" y="-14.3" font-family="Times,serif" font-size="14.00" fill="#000000">frozenset({&#39;green&#39;})</text>
</g>
<!-- 3&#45;&gt;2 -->
<g id="edge5" class="edge">
<title>3&#45;&gt;2</title>
<path fill="none" stroke="#000000" d="M450.6844,-269.6048C437.6541,-242.9984 412.333,-194.0093 397,-182 375.0819,-164.833 353.619,-186.3365 337,-164 333.0205,-158.6514 334.2532,-155.0745 337,-149 363.3397,-90.7511 386.5131,-79.807 445,-54 496.0489,-31.475 659.6636,-22.3627 734.2754,-19.3104"/>
<polygon fill="#000000" stroke="#000000" points="734.7595,-22.7942 744.6139,-18.9032 734.4839,-15.7996 734.7595,-22.7942"/>
<text text-anchor="middle" x="387" y="-152.8" font-family="Times,serif" font-size="14.00" fill="#000000">frozenset({&#39;blue&#39;})</text>
</g>
<!-- 3&#45;&gt;2 -->
<g id="edge14" class="edge">
<title>3&#45;&gt;2</title>
<path fill="none" stroke="#000000" d="M455.0077,-268.7529C449.9438,-241.5294 443.6907,-189.182 460,-149 481.989,-94.8248 499.253,-81.2162 551,-54 582.2067,-37.5869 680.159,-26.358 734.5925,-21.2078"/>
<polygon fill="#000000" stroke="#000000" points="735.2305,-24.6638 744.8663,-20.259 734.5868,-17.6935 735.2305,-24.6638"/>
<text text-anchor="middle" x="513.5" y="-152.8" font-family="Times,serif" font-size="14.00" fill="#000000">frozenset({&#39;green&#39;})</text>
</g>
<!-- 3&#45;&gt;2 -->
<g id="edge18" class="edge">
<title>3&#45;&gt;2</title>
<path fill="none" stroke="#000000" d="M473.9938,-271.8852C495.8432,-249.4444 537.0829,-205.4906 567,-164 600.7534,-117.1889 588.3816,-86.6045 636,-54 665.5256,-33.7837 705.7996,-24.916 734.8491,-21.0287"/>
<polygon fill="#000000" stroke="#000000" points="735.4913,-24.4768 745.003,-19.8101 734.6571,-17.5267 735.4913,-24.4768"/>
<text text-anchor="middle" x="623" y="-152.8" font-family="Times,serif" font-size="14.00" fill="#000000">frozenset({&#39;red&#39;})</text>
</g>
<!-- 3&#45;&gt;3 -->
<g id="edge4" class="edge">
<title>3&#45;&gt;3</title>
<path fill="none" stroke="#000000" d="M483.5325,-294.752C494.5078,-295.4902 504,-292.9063 504,-287 504,-283.0317 499.7151,-280.5632 493.5743,-279.5944"/>
<polygon fill="#000000" stroke="#000000" points="493.6472,-276.0949 483.5325,-279.248 493.4059,-283.0908 493.6472,-276.0949"/>
<text text-anchor="middle" x="533.5" y="-283.3" font-family="Times,serif" font-size="14.00" fill="#000000">frozenset()</text>
</g>
<!-- 4 -->
<g id="node6" class="node">
<title>4</title>
<ellipse fill="none" stroke="#000000" cx="747" cy="-200" rx="27" ry="18"/>
<text text-anchor="middle" x="747" y="-196.3" font-family="Times,serif" font-size="14.00" fill="#000000">4</text>
</g>
<!-- 3&#45;&gt;4 -->
<g id="edge17" class="edge">
<title>3&#45;&gt;4</title>
<path fill="none" stroke="#000000" d="M484.6927,-281.3564C513.6535,-274.815 562.0419,-263.3421 603,-251 641.5028,-239.3978 684.9111,-223.6486 713.9075,-212.7347"/>
<polygon fill="#000000" stroke="#000000" points="715.4186,-215.9052 723.5312,-209.0908 712.9397,-209.3587 715.4186,-215.9052"/>
<text text-anchor="middle" x="703" y="-239.8" font-family="Times,serif" font-size="14.00" fill="#000000">frozenset({&#39;yellow&#39;})</text>
</g>
<!-- 4&#45;&gt;2 -->
<g id="edge3" class="edge">
<title>4&#45;&gt;2</title>
<path fill="none" stroke="#000000" d="M731.6514,-184.7152C719.5922,-173.455 701.8955,-158.5066 684,-149 659.7888,-136.1383 641.3138,-153.0333 625,-131 613.3633,-115.2836 614.5137,-103.5063 625,-87 649.1479,-48.9895 700.3914,-31.5496 735.5164,-23.8083"/>
<polygon fill="#000000" stroke="#000000" points="736.3079,-27.219 745.4054,-21.7889 734.9073,-20.3605 736.3079,-27.219"/>
<text text-anchor="middle" x="675" y="-105.3" font-family="Times,serif" font-size="14.00" fill="#000000">frozenset({&#39;blue&#39;})</text>
</g>
<!-- 4&#45;&gt;2 -->
<g id="edge6" class="edge">
<title>4&#45;&gt;2</title>
<path fill="none" stroke="#000000" d="M747.5699,-181.8491C748.7043,-154.0721 751.9714,-99.4556 761,-54 761.5423,-51.2697 762.2087,-48.4514 762.9428,-45.6499"/>
<polygon fill="#000000" stroke="#000000" points="766.3856,-46.343 765.7979,-35.7645 759.6605,-44.4006 766.3856,-46.343"/>
<text text-anchor="middle" x="812" y="-105.3" font-family="Times,serif" font-size="14.00" fill="#000000">frozenset({&#39;yellow&#39;})</text>
</g>
<!-- 4&#45;&gt;2 -->
<g id="edge12" class="edge">
<title>4&#45;&gt;2</title>
<path fill="none" stroke="#000000" d="M772.7878,-194.2206C802.9157,-185.9351 851.3875,-167.4764 873,-131 882.9684,-114.1759 885.3479,-102.1641 873,-87 848.0678,-56.3814 814.7981,-96.0145 786,-69 779.7157,-63.105 776.1575,-54.6786 774.1712,-46.3689"/>
<polygon fill="#000000" stroke="#000000" points="777.6112,-45.7216 772.4503,-36.4687 770.7146,-46.9204 777.6112,-45.7216"/>
<text text-anchor="middle" x="928" y="-105.3" font-family="Times,serif" font-size="14.00" fill="#000000">frozenset({&#39;red&#39;})</text>
</g>
<!-- 4&#45;&gt;4 -->
<g id="edge29" class="edge">
<title>4&#45;&gt;4</title>
<path fill="none" stroke="#000000" d="M771.5325,-207.752C782.5078,-208.4902 792,-205.9063 792,-200 792,-196.0317 787.7151,-193.5632 781.5743,-192.5944"/>
<polygon fill="#000000" stroke="#000000" points="781.6472,-189.0949 771.5325,-192.248 781.4059,-196.0908 781.6472,-189.0949"/>
<text text-anchor="middle" x="821.5" y="-196.3" font-family="Times,serif" font-size="14.00" fill="#000000">frozenset()</text>
</g>
<!-- 5 -->
<g id="node7" class="node">
<title>5</title>
<ellipse fill="none" stroke="#000000" cx="1031" cy="-109" rx="18" ry="18"/>
<ellipse fill="none" stroke="#000000" cx="1031" cy="-109" rx="22" ry="22"/>
<text text-anchor="middle" x="1031" y="-105.3" font-family="Times,serif" font-size="14.00" fill="#000000">5</text>
</g>
<!-- 4&#45;&gt;5 -->
<g id="edge11" class="edge">
<title>4&#45;&gt;5</title>
<path fill="none" stroke="#000000" d="M773.175,-195.5766C805.8224,-189.7585 863.1701,-178.5448 911,-164 949.3758,-152.3301 959.0842,-148.859 995,-131 997.7956,-129.6099 1000.6583,-128.0728 1003.4882,-126.4762"/>
<polygon fill="#000000" stroke="#000000" points="1005.46,-129.3767 1012.294,-121.2805 1001.9028,-123.3479 1005.46,-129.3767"/>
<text text-anchor="middle" x="1008.5" y="-152.8" font-family="Times,serif" font-size="14.00" fill="#000000">frozenset({&#39;green&#39;})</text>
</g>
<!-- 5&#45;&gt;2 -->
<g id="edge8" class="edge">
<title>5&#45;&gt;2</title>
<path fill="none" stroke="#000000" d="M1013.1086,-95.8751C1007.56,-92.4226 1001.2539,-89.0846 995,-87 914.95,-60.3167 878.4224,-112.3012 806,-69 796.547,-63.348 789.1801,-53.93 783.7577,-44.7149"/>
<polygon fill="#000000" stroke="#000000" points="786.7595,-42.9049 778.9782,-35.7145 780.5771,-46.188 786.7595,-42.9049"/>
<text text-anchor="middle" x="856" y="-57.8" font-family="Times,serif" font-size="14.00" fill="#000000">frozenset({&#39;blue&#39;})</text>
</g>
<!-- 5&#45;&gt;2 -->
<g id="edge15" class="edge">
<title>5&#45;&gt;2</title>
<path fill="none" stroke="#000000" d="M1012.8548,-96.5403C1007.299,-93.1065 1001.0526,-89.612 995,-87 967.0838,-74.9529 956.7364,-81.4555 929,-69 917.867,-64.0005 917.1425,-58.9783 906,-54 874.3092,-39.8409 835.8408,-30.2158 808.2644,-24.5064"/>
<polygon fill="#000000" stroke="#000000" points="808.7575,-21.0359 798.2656,-22.5087 807.386,-27.9002 808.7575,-21.0359"/>
<text text-anchor="middle" x="958.5" y="-57.8" font-family="Times,serif" font-size="14.00" fill="#000000">frozenset()</text>
</g>
<!-- 5&#45;&gt;2 -->
<g id="edge16" class="edge">
<title>5&#45;&gt;2</title>
<path fill="none" stroke="#000000" d="M1020.6893,-89.356C1013.255,-77.1971 1002.0663,-62.3592 988,-54 958.4331,-36.4293 862.7588,-25.7124 809.195,-20.9383"/>
<polygon fill="#000000" stroke="#000000" points="809.3403,-17.4379 799.0757,-20.0624 808.7366,-24.4118 809.3403,-17.4379"/>
<text text-anchor="middle" x="1062" y="-57.8" font-family="Times,serif" font-size="14.00" fill="#000000">frozenset({&#39;yellow&#39;})</text>
</g>
<!-- 5&#45;&gt;2 -->
<g id="edge22" class="edge">
<title>5&#45;&gt;2</title>
<path fill="none" stroke="#000000" d="M1052.8024,-104.7362C1086.799,-97.1784 1146.2549,-79.762 1123,-54 1102.2397,-31.0015 895.0777,-21.87 809.0989,-19.0514"/>
<polygon fill="#000000" stroke="#000000" points="809.1013,-15.5498 798.9954,-18.7311 808.8794,-22.5463 809.1013,-15.5498"/>
<text text-anchor="middle" x="1181.5" y="-57.8" font-family="Times,serif" font-size="14.00" fill="#000000">frozenset({&#39;green&#39;})</text>
</g>
<!-- 5&#45;&gt;2 -->
<g id="edge25" class="edge">
<title>5&#45;&gt;2</title>
<path fill="none" stroke="#000000" d="M1053.143,-108.1652C1101.8012,-105.8178 1215.5813,-97.3514 1239,-69 1243.2457,-63.8601 1243.5293,-58.8919 1239,-54 1224.4474,-38.2824 917.4067,-24.0473 809.2764,-19.5044"/>
<polygon fill="#000000" stroke="#000000" points="809.2911,-16.0021 799.1542,-19.0832 808.9999,-22.9961 809.2911,-16.0021"/>
<text text-anchor="middle" x="1289" y="-57.8" font-family="Times,serif" font-size="14.00" fill="#000000">frozenset({&#39;red&#39;})</text>
</g>
</g>
</svg>
