<?xml version="1.0" encoding="UTF-8" standalone="no"?>
<!DOCTYPE svg PUBLIC "-//W3C//DTD SVG 1.1//EN"
 "http://www.w3.org/Graphics/SVG/1.1/DTD/svg11.dtd">
<!-- Generated by graphviz version 2.40.1 (20161225.0304)
 -->
<!-- Title: %3 Pages: 1 -->
<svg width="486pt" height="386pt"
 viewBox="0.00 0.00 485.85 386.00" xmlns="http://www.w3.org/2000/svg" xmlns:xlink="http://www.w3.org/1999/xlink">
<g id="graph0" class="graph" transform="scale(1 1) rotate(0) translate(4 382)">
<title>%3</title>
<polygon fill="#ffffff" stroke="transparent" points="-4,4 -4,-382 481.8533,-382 481.8533,4 -4,4"/>
<!-- fake -->
<g id="node1" class="node">
<title>fake</title>
</g>
<!-- 0 -->
<g id="node2" class="node">
<title>0</title>
<ellipse fill="none" stroke="#000000" cx="234.8533" cy="-287" rx="27" ry="18"/>
<text text-anchor="middle" x="234.8533" y="-283.3" font-family="Times,serif" font-size="14.00" fill="#000000">0</text>
</g>
<!-- fake&#45;&gt;0 -->
<g id="edge1" class="edge">
<title>fake&#45;&gt;0</title>
<path fill="none" stroke="#000000" stroke-width="2" d="M234.8533,-341.9551C234.8533,-333.8828 234.8533,-324.1764 234.8533,-315.1817"/>
<polygon fill="#000000" stroke="#000000" stroke-width="2" points="238.3534,-315.0903 234.8533,-305.0904 231.3534,-315.0904 238.3534,-315.0903"/>
</g>
<!-- 0&#45;&gt;0 -->
<g id="edge7" class="edge">
<title>0&#45;&gt;0</title>
<path fill="none" stroke="#000000" d="M260.2967,-293.6907C270.8811,-294.1521 279.8533,-291.9219 279.8533,-287 279.8533,-283.77 275.9893,-281.6992 270.3414,-280.7876"/>
<polygon fill="#000000" stroke="#000000" points="270.4519,-277.289 260.2967,-280.3093 270.1189,-284.2811 270.4519,-277.289"/>
<text text-anchor="middle" x="309.3533" y="-283.3" font-family="Times,serif" font-size="14.00" fill="#000000">frozenset()</text>
</g>
<!-- 1 -->
<g id="node3" class="node">
<title>1</title>
<ellipse fill="none" stroke="#000000" cx="129.8533" cy="-200" rx="27" ry="18"/>
<text text-anchor="middle" x="129.8533" y="-196.3" font-family="Times,serif" font-size="14.00" fill="#000000">1</text>
</g>
<!-- 0&#45;&gt;1 -->
<g id="edge2" class="edge">
<title>0&#45;&gt;1</title>
<path fill="none" stroke="#000000" d="M217.5146,-272.6337C200.3898,-258.4445 174.0274,-236.6014 154.6828,-220.573"/>
<polygon fill="#000000" stroke="#000000" points="156.8026,-217.7841 146.8692,-214.099 152.3364,-223.1743 156.8026,-217.7841"/>
<text text-anchor="middle" x="234.8533" y="-239.8" font-family="Times,serif" font-size="14.00" fill="#000000">frozenset({&#39;red&#39;})</text>
</g>
<!-- 2 -->
<g id="node4" class="node">
<title>2</title>
<ellipse fill="none" stroke="#000000" cx="129.8533" cy="-18" rx="27" ry="18"/>
<text text-anchor="middle" x="129.8533" y="-14.3" font-family="Times,serif" font-size="14.00" fill="#000000">2</text>
</g>
<!-- 0&#45;&gt;2 -->
<g id="edge9" class="edge">
<title>0&#45;&gt;2</title>
<path fill="none" stroke="#000000" d="M257.2558,-276.5571C267.6297,-270.5541 279.123,-262.0017 285.8533,-251 331.9401,-175.664 367.916,-122.2383 311.8533,-54 293.8996,-32.1472 214.9313,-23.335 167.1084,-19.9555"/>
<polygon fill="#000000" stroke="#000000" points="167.3297,-16.4626 157.1208,-19.2964 166.8686,-23.4474 167.3297,-16.4626"/>
<text text-anchor="middle" x="393.8533" y="-152.8" font-family="Times,serif" font-size="14.00" fill="#000000">frozenset({&#39;yellow&#39;})</text>
</g>
<!-- 1&#45;&gt;1 -->
<g id="edge5" class="edge">
<title>1&#45;&gt;1</title>
<path fill="none" stroke="#000000" d="M154.3857,-207.752C165.3611,-208.4902 174.8533,-205.9063 174.8533,-200 174.8533,-196.0317 170.5683,-193.5632 164.4276,-192.5944"/>
<polygon fill="#000000" stroke="#000000" points="164.5005,-189.0949 154.3857,-192.248 164.2591,-196.0908 164.5005,-189.0949"/>
<text text-anchor="middle" x="204.3533" y="-196.3" font-family="Times,serif" font-size="14.00" fill="#000000">frozenset()</text>
</g>
<!-- 1&#45;&gt;2 -->
<g id="edge13" class="edge">
<title>1&#45;&gt;2</title>
<path fill="none" stroke="#000000" d="M104.2629,-194.1575C74.367,-185.8099 26.2729,-167.29 4.8533,-131 -5.0868,-114.1591 3.9671,-106.5355 4.8533,-87 5.5206,-72.288 -1.4899,-65.3839 7.8533,-54 18.7886,-40.6762 61.752,-30.2155 93.6166,-24.0805"/>
<polygon fill="#000000" stroke="#000000" points="94.3245,-27.509 103.5177,-22.2424 93.0468,-20.6266 94.3245,-27.509"/>
<text text-anchor="middle" x="51.8533" y="-105.3" font-family="Times,serif" font-size="14.00" fill="#000000">frozenset({&#39;red&#39;})</text>
</g>
<!-- 3 -->
<g id="node5" class="node">
<title>3</title>
<ellipse fill="none" stroke="#000000" cx="129.8533" cy="-109" rx="18" ry="18"/>
<ellipse fill="none" stroke="#000000" cx="129.8533" cy="-109" rx="22" ry="22"/>
<text text-anchor="middle" x="129.8533" y="-105.3" font-family="Times,serif" font-size="14.00" fill="#000000">3</text>
</g>
<!-- 1&#45;&gt;3 -->
<g id="edge6" class="edge">
<title>1&#45;&gt;3</title>
<path fill="none" stroke="#000000" d="M129.8533,-181.5848C129.8533,-170.1105 129.8533,-155.0231 129.8533,-141.5774"/>
<polygon fill="#000000" stroke="#000000" points="133.3534,-141.2465 129.8533,-131.2465 126.3534,-141.2466 133.3534,-141.2465"/>
<text text-anchor="middle" x="186.8533" y="-152.8" font-family="Times,serif" font-size="14.00" fill="#000000">frozenset({&#39;yellow&#39;})</text>
</g>
<!-- 2&#45;&gt;2 -->
<g id="edge3" class="edge">
<title>2&#45;&gt;2</title>
<path fill="none" stroke="#000000" d="M156.6481,-20.6192C166.6337,-20.7051 174.8533,-19.832 174.8533,-18 174.8533,-16.855 171.6425,-16.0846 166.7965,-15.6887"/>
<polygon fill="#000000" stroke="#000000" points="166.7497,-12.1858 156.6481,-15.3808 166.5373,-19.1826 166.7497,-12.1858"/>
<text text-anchor="middle" x="221.8533" y="-14.3" font-family="Times,serif" font-size="14.00" fill="#000000">frozenset({&#39;red&#39;})</text>
</g>
<!-- 2&#45;&gt;2 -->
<g id="edge4" class="edge">
<title>2&#45;&gt;2</title>
<path fill="none" stroke="#000000" d="M156.5635,-21.6799C198.265,-24.6407 268.8533,-23.4141 268.8533,-18 268.8533,-12.9983 208.6091,-11.5705 166.5518,-13.7164"/>
<polygon fill="#000000" stroke="#000000" points="166.3341,-10.2231 156.5635,-14.3201 166.7565,-17.2103 166.3341,-10.2231"/>
<text text-anchor="middle" x="325.8533" y="-14.3" font-family="Times,serif" font-size="14.00" fill="#000000">frozenset({&#39;yellow&#39;})</text>
</g>
<!-- 2&#45;&gt;2 -->
<g id="edge8" class="edge">
<title>2&#45;&gt;2</title>
<path fill="none" stroke="#000000" d="M156.3931,-22.2369C223.447,-28.2307 382.8533,-26.8184 382.8533,-18 382.8533,-9.595 238.0411,-7.918 166.4054,-12.969"/>
<polygon fill="#000000" stroke="#000000" points="166.085,-9.4833 156.3931,-13.7631 166.6385,-16.4614 166.085,-9.4833"/>
<text text-anchor="middle" x="412.3533" y="-14.3" font-family="Times,serif" font-size="14.00" fill="#000000">frozenset()</text>
</g>
<!-- 3&#45;&gt;2 -->
<g id="edge10" class="edge">
<title>3&#45;&gt;2</title>
<path fill="none" stroke="#000000" d="M109.8353,-99.833C100.2665,-95.6318 88.5838,-90.7621 77.8533,-87 49.9693,-77.224 31.6957,-92.5528 13.8533,-69 9.8276,-63.686 9.8991,-59.3674 13.8533,-54 23.4606,-40.959 63.3145,-30.605 93.6513,-24.4097"/>
<polygon fill="#000000" stroke="#000000" points="94.38,-27.8335 103.5171,-22.4702 93.0297,-20.965 94.38,-27.8335"/>
<text text-anchor="middle" x="60.8533" y="-57.8" font-family="Times,serif" font-size="14.00" fill="#000000">frozenset({&#39;red&#39;})</text>
</g>
<!-- 3&#45;&gt;2 -->
<g id="edge11" class="edge">
<title>3&#45;&gt;2</title>
<path fill="none" stroke="#000000" d="M129.8533,-86.9714C129.8533,-74.8075 129.8533,-59.5615 129.8533,-46.499"/>
<polygon fill="#000000" stroke="#000000" points="133.3534,-46.1556 129.8533,-36.1556 126.3534,-46.1556 133.3534,-46.1556"/>
<text text-anchor="middle" x="186.8533" y="-57.8" font-family="Times,serif" font-size="14.00" fill="#000000">frozenset({&#39;yellow&#39;})</text>
</g>
<!-- 3&#45;&gt;2 -->
<g id="edge12" class="edge">
<title>3&#45;&gt;2</title>
<path fill="none" stroke="#000000" d="M151.9145,-106.9003C191.9386,-102.2016 270.1453,-88.4198 244.8533,-54 235.4064,-41.1438 196.3973,-30.8283 166.4038,-24.5894"/>
<polygon fill="#000000" stroke="#000000" points="166.7262,-21.0847 156.234,-22.5552 165.3532,-27.9487 166.7262,-21.0847"/>
<text text-anchor="middle" x="278.3533" y="-57.8" font-family="Times,serif" font-size="14.00" fill="#000000">frozenset()</text>
</g>
</g>
</svg>
